<svg width="252" height="70" viewBox="0 0 252 70" fill="none" xmlns="http://www.w3.org/2000/svg">
<path d="M6.288 49.264C6.288 48.112 6.464 46.624 6.816 44.8C7.2 42.944 7.68 40.96 8.256 38.848C8.864 36.704 9.552 34.528 10.32 32.32C11.088 30.08 11.872 27.984 12.672 26.032C13.472 24.08 14.256 22.368 15.024 20.896C15.792 19.424 16.48 18.368 17.088 17.728C17.408 17.76 17.824 17.888 18.336 18.112C18.88 18.304 19.424 18.544 19.968 18.832C20.512 19.12 21.008 19.44 21.456 19.792C21.904 20.112 22.192 20.416 22.32 20.704C21.392 21.536 20.464 22.8 19.536 24.496C18.64 26.16 17.76 28.064 16.896 30.208C16.064 32.352 15.28 34.624 14.544 37.024C13.808 39.392 13.168 41.696 12.624 43.936C12.08 46.176 11.648 48.256 11.328 50.176C11.04 52.096 10.896 53.648 10.896 54.832C10.896 55.376 10.944 55.712 11.04 55.84C10.336 55.808 9.824 55.68 9.504 55.456C9.184 55.264 8.928 55.04 8.736 54.784C8.576 54.56 8.416 54.32 8.256 54.064C8.128 53.84 7.92 53.664 7.632 53.536C7.408 53.44 7.216 53.216 7.056 52.864C6.896 52.512 6.752 52.128 6.624 51.712C6.528 51.264 6.448 50.816 6.384 50.368C6.32 49.92 6.288 49.552 6.288 49.264ZM26.7758 28.72C27.6078 28.976 28.3918 29.552 29.1278 30.448C29.8638 31.312 30.4078 32.272 30.7598 33.328C30.4078 34.192 29.8638 35.232 29.1278 36.448C28.3918 37.664 27.6558 38.912 26.9198 40.192C26.1838 41.44 25.5118 42.64 24.9038 43.792C24.3278 44.912 23.9918 45.84 23.8958 46.576C24.4078 46.032 24.9678 45.408 25.5758 44.704C26.2158 43.968 26.8238 43.248 27.3998 42.544C28.0078 41.808 28.5678 41.152 29.0798 40.576C29.5918 39.968 29.9918 39.52 30.2798 39.232C30.8878 38.592 31.6078 37.856 32.4398 37.024C33.2718 36.16 34.1358 35.36 35.0318 34.624C35.9598 33.856 36.8878 33.216 37.8158 32.704C38.7438 32.16 39.5918 31.888 40.3598 31.888C41.1918 31.888 41.8798 32.176 42.4238 32.752C42.9998 33.296 43.4478 33.872 43.7678 34.48C43.7678 34.544 43.6398 34.64 43.3838 34.768C43.1598 34.864 42.8238 35.168 42.3758 35.68C41.9278 36.256 41.4158 37.056 40.8398 38.08C40.2958 39.072 39.7518 40.16 39.2078 41.344C38.6958 42.496 38.2638 43.68 37.9118 44.896C37.5598 46.112 37.3838 47.216 37.3838 48.208C37.3838 49.008 37.4798 49.52 37.6718 49.744C37.8958 49.968 38.1998 50.08 38.5837 50.08C38.9358 50.08 39.3038 50 39.6877 49.84C40.0718 49.68 40.3758 49.6 40.5998 49.6C40.7278 49.664 40.8238 49.808 40.8878 50.032C40.9838 50.224 41.0318 50.4 41.0318 50.56C40.7758 50.784 40.4718 51.008 40.1198 51.232C39.7678 51.456 39.3998 51.664 39.0157 51.856C38.6318 52.048 38.2478 52.208 37.8638 52.336C37.5118 52.464 37.1918 52.528 36.9038 52.528C35.9758 52.528 35.2078 52.384 34.5998 52.096C34.0238 51.84 33.5598 51.488 33.2078 51.04C32.8878 50.592 32.6638 50.064 32.5358 49.456C32.4078 48.816 32.3438 48.144 32.3438 47.44C32.3438 47.056 32.3758 46.624 32.4398 46.144C32.5038 45.664 32.6318 45.104 32.8238 44.464C33.0158 43.792 33.2878 43.008 33.6398 42.112C33.9918 41.184 34.4398 40.08 34.9838 38.8C34.9198 38.8 34.4878 39.024 33.6878 39.472C32.8878 39.92 32.0238 40.608 31.0958 41.536C29.5918 42.976 28.2318 44.4 27.0157 45.808C25.8318 47.216 24.6158 48.784 23.3678 50.512C22.6638 51.504 22.0398 52.336 21.4958 53.008C20.9838 53.712 20.5358 54.176 20.1518 54.4C19.4798 54.016 18.9838 53.472 18.6638 52.768C18.3438 52.096 18.1038 51.392 17.9438 50.656C17.9438 50.048 18.0238 49.28 18.1838 48.352C18.3758 47.424 18.6158 46.4 18.9038 45.28C19.2238 44.128 19.6078 42.928 20.0558 41.68C20.5038 40.432 20.9998 39.184 21.5438 37.936C22.7598 35.12 23.8638 32.912 24.8558 31.312C25.8798 29.712 26.5198 28.848 26.7758 28.72ZM47.5616 35.008C47.5616 34.432 47.5936 33.888 47.6576 33.376C47.7536 32.864 47.9296 32.432 48.1856 32.08C48.4416 31.696 48.7936 31.408 49.2416 31.216C49.6896 30.992 50.2816 30.88 51.0176 30.88C51.4656 30.88 51.9616 30.928 52.5056 31.024C53.0816 31.12 53.4976 31.296 53.7536 31.552C53.6256 32.096 53.5136 32.576 53.4176 32.992C53.3536 33.408 53.2896 33.872 53.2256 34.384C53.1936 34.864 53.1616 35.456 53.1296 36.16C53.0976 36.832 53.0656 37.712 53.0336 38.8C52.9696 40.976 52.8576 42.928 52.6976 44.656C52.5696 46.352 52.2496 48.048 51.7376 49.744C51.7376 49.872 51.7856 49.936 51.8816 49.936C52.3616 49.584 52.9056 49.072 53.5136 48.4C54.1216 47.728 54.7616 46.976 55.4336 46.144C56.1056 45.28 56.7776 44.368 57.4496 43.408C58.1216 42.448 58.7456 41.504 59.3216 40.576C60.0896 39.232 60.9376 37.552 61.8656 35.536C62.7936 33.52 63.5616 31.36 64.1696 29.056C64.3616 29.056 64.6016 29.104 64.8896 29.2C65.2096 29.264 65.5136 29.36 65.8016 29.488C66.1216 29.584 66.3936 29.696 66.6176 29.824C66.8736 29.952 67.0496 30.064 67.1456 30.16C67.0816 31.536 66.7456 32.944 66.1376 34.384C65.5616 35.824 64.8576 37.216 64.0256 38.56C63.1936 39.904 62.3136 41.168 61.3856 42.352C60.4576 43.536 59.6096 44.56 58.8416 45.424C57.3056 47.216 55.7536 48.816 54.1856 50.224C52.6496 51.632 50.8096 52.992 48.6656 54.304C47.8336 53.984 47.1776 53.552 46.6976 53.008C46.2176 52.496 45.9776 51.952 45.9776 51.376C45.9776 50.992 46.0576 50.56 46.2176 50.08C46.4096 49.568 46.6176 48.928 46.8416 48.16C47.0656 47.36 47.2576 46.368 47.4176 45.184C47.6096 44 47.7056 42.496 47.7056 40.672C47.7056 39.616 47.6736 38.56 47.6096 37.504C47.5776 36.416 47.5616 35.584 47.5616 35.008ZM83.6213 32.128C83.4933 34.112 83.1413 35.824 82.5653 37.264C81.9893 38.672 81.1573 39.92 80.0693 41.008C79.0133 42.064 77.7173 43.024 76.1813 43.888C74.6453 44.752 72.8533 45.584 70.8053 46.384C70.8053 46.576 70.7893 46.784 70.7573 47.008C70.7573 47.2 70.7573 47.408 70.7573 47.632C70.7573 48.048 70.7893 48.48 70.8533 48.928C70.9173 49.376 71.0293 49.792 71.1893 50.176C71.3493 50.56 71.5733 50.88 71.8613 51.136C72.1493 51.36 72.5173 51.472 72.9653 51.472C73.8293 51.472 74.6773 51.28 75.5093 50.896C76.3413 50.512 77.1253 50.048 77.8613 49.504C78.6293 48.928 79.3333 48.32 79.9733 47.68C80.6453 47.008 81.2373 46.4 81.7493 45.856C82.0693 46.144 82.3413 46.416 82.5653 46.672C81.1253 48.592 79.5413 50.192 77.8133 51.472C76.1173 52.72 74.5013 53.52 72.9653 53.872C70.7573 53.616 69.0293 52.816 67.7812 51.472C66.5653 50.096 65.9573 48.448 65.9573 46.528C65.9573 45.216 66.1333 43.888 66.4853 42.544C66.8693 41.168 67.3813 39.856 68.0213 38.608C68.6933 37.328 69.4613 36.128 70.3253 35.008C71.2213 33.888 72.1653 32.912 73.1573 32.08C74.1813 31.248 75.2213 30.592 76.2773 30.112C77.3653 29.632 78.4373 29.392 79.4933 29.392C80.9653 29.584 82.3413 30.496 83.6213 32.128ZM80.3093 33.712C79.4453 33.84 78.5493 34.192 77.6213 34.768C76.6933 35.344 75.8133 36.112 74.9813 37.072C74.1813 38.032 73.4453 39.152 72.7733 40.432C72.1013 41.712 71.5733 43.088 71.1893 44.56C73.7493 43.28 75.8773 41.712 77.5733 39.856C79.2693 37.968 80.1813 35.92 80.3093 33.712ZM93.6195 28.72C94.4515 28.976 95.2355 29.552 95.9715 30.448C96.7075 31.312 97.2515 32.272 97.6035 33.328C97.2515 34.192 96.7075 35.232 95.9715 36.448C95.2355 37.664 94.4995 38.912 93.7635 40.192C93.0275 41.44 92.3555 42.64 91.7475 43.792C91.1715 44.912 90.8355 45.84 90.7395 46.576C91.2515 46.032 91.8115 45.408 92.4195 44.704C93.0595 43.968 93.6675 43.248 94.2435 42.544C94.8515 41.808 95.4115 41.152 95.9235 40.576C96.4355 39.968 96.8355 39.52 97.1235 39.232C97.7315 38.592 98.4515 37.856 99.2835 37.024C100.116 36.16 100.98 35.36 101.876 34.624C102.804 33.856 103.732 33.216 104.66 32.704C105.588 32.16 106.436 31.888 107.204 31.888C108.036 31.888 108.724 32.176 109.268 32.752C109.844 33.296 110.292 33.872 110.612 34.48C110.612 34.544 110.484 34.64 110.228 34.768C110.004 34.864 109.668 35.168 109.22 35.68C108.772 36.256 108.26 37.056 107.684 38.08C107.14 39.072 106.596 40.16 106.052 41.344C105.54 42.496 105.108 43.68 104.756 44.896C104.404 46.112 104.228 47.216 104.228 48.208C104.228 49.008 104.324 49.52 104.516 49.744C104.74 49.968 105.044 50.08 105.427 50.08C105.78 50.08 106.148 50 106.531 49.84C106.916 49.68 107.22 49.6 107.444 49.6C107.572 49.664 107.668 49.808 107.732 50.032C107.828 50.224 107.876 50.4 107.876 50.56C107.62 50.784 107.316 51.008 106.964 51.232C106.612 51.456 106.244 51.664 105.859 51.856C105.476 52.048 105.092 52.208 104.708 52.336C104.356 52.464 104.036 52.528 103.748 52.528C102.82 52.528 102.052 52.384 101.444 52.096C100.868 51.84 100.404 51.488 100.052 51.04C99.7315 50.592 99.5075 50.064 99.3795 49.456C99.2515 48.816 99.1875 48.144 99.1875 47.44C99.1875 47.056 99.2195 46.624 99.2835 46.144C99.3475 45.664 99.4755 45.104 99.6675 44.464C99.8595 43.792 100.132 43.008 100.484 42.112C100.836 41.184 101.284 40.08 101.828 38.8C101.764 38.8 101.332 39.024 100.532 39.472C99.7315 39.92 98.8675 40.608 97.9395 41.536C96.4355 42.976 95.0755 44.4 93.8595 45.808C92.6755 47.216 91.4595 48.784 90.2115 50.512C89.5075 51.504 88.8835 52.336 88.3395 53.008C87.8275 53.712 87.3795 54.176 86.9955 54.4C86.3235 54.016 85.8275 53.472 85.5075 52.768C85.1875 52.096 84.9475 51.392 84.7875 50.656C84.7875 50.048 84.8675 49.28 85.0275 48.352C85.2195 47.424 85.4595 46.4 85.7475 45.28C86.0675 44.128 86.4515 42.928 86.8995 41.68C87.3475 40.432 87.8435 39.184 88.3875 37.936C89.6035 35.12 90.7075 32.912 91.6995 31.312C92.7235 29.712 93.3635 28.848 93.6195 28.72Z" fill="#11E1FD"/>
<path d="M138.144 19.648C138.24 20.192 138.304 20.576 138.336 20.8C138.4 20.992 138.432 21.264 138.432 21.616C138.432 22.672 138.192 23.664 137.712 24.592C137.264 25.488 136.64 26.128 135.84 26.512C135.2 25.648 134.416 24.912 133.488 24.304C132.56 23.664 131.536 23.152 130.416 22.768C129.328 22.352 128.192 22.048 127.008 21.856C125.824 21.664 124.672 21.568 123.552 21.568C122.432 21.568 121.376 21.664 120.384 21.856C119.424 22.016 118.56 22.256 117.792 22.576C117.056 22.864 116.464 23.232 116.016 23.68C115.6 24.128 115.392 24.64 115.392 25.216C115.488 25.92 115.92 26.64 116.688 27.376C117.456 28.08 118.4 28.784 119.52 29.488C120.64 30.16 121.872 30.832 123.216 31.504C124.592 32.176 125.936 32.816 127.248 33.424C128.88 34.192 130.288 34.912 131.472 35.584C132.656 36.224 133.632 36.944 134.4 37.744C135.168 38.512 135.744 39.392 136.128 40.384C136.512 41.376 136.704 42.576 136.704 43.984C136.704 45.616 136.432 47.152 135.888 48.592C135.344 50 134.544 51.232 133.488 52.288C132.464 53.344 131.216 54.16 129.744 54.736C128.272 55.344 126.624 55.648 124.8 55.648C123.008 55.648 121.072 55.376 118.992 54.832C116.912 54.288 114.96 53.536 113.136 52.576C111.344 51.648 109.84 50.576 108.624 49.36C107.44 48.112 106.848 46.8 106.848 45.424C106.848 44.784 107.024 43.968 107.376 42.976C107.76 41.984 108.432 40.944 109.392 39.856C109.488 40.816 110 41.952 110.928 43.264C111.888 44.576 113.312 45.792 115.2 46.912C116.96 47.936 118.768 48.688 120.624 49.168C122.512 49.616 124.272 49.84 125.904 49.84C127.696 49.84 129.152 49.616 130.272 49.168C131.392 48.72 132.272 48.192 132.912 47.584C133.552 46.944 134 46.304 134.256 45.664C134.512 45.024 134.656 44.512 134.688 44.128C134.656 43.488 134.352 42.88 133.776 42.304C133.232 41.696 132.48 41.12 131.52 40.576C130.592 40 129.504 39.424 128.256 38.848C127.008 38.272 125.712 37.696 124.368 37.12C122.352 36.224 120.608 35.392 119.136 34.624C117.696 33.824 116.496 33.024 115.536 32.224C114.608 31.392 113.92 30.528 113.472 29.632C113.056 28.736 112.848 27.712 112.848 26.56C112.848 24.768 113.392 23.072 114.48 21.472C115.568 19.872 117.136 18.656 119.184 17.824C120.208 17.376 121.296 17.056 122.448 16.864C123.632 16.672 124.784 16.576 125.904 16.576C128.016 16.576 130.08 16.864 132.096 17.44C134.112 18.016 136.128 18.752 138.144 19.648ZM158.407 44.56C157.671 46.896 156.935 49.024 156.199 50.944C155.463 52.864 154.679 54.624 153.847 56.224C153.015 57.856 152.119 59.344 151.159 60.688C150.199 62.064 149.143 63.36 147.991 64.576C146.519 66.112 144.999 67.28 143.431 68.08C141.863 68.912 140.295 69.328 138.727 69.328C137.927 69.328 137.127 69.232 136.327 69.04C135.559 68.88 134.839 68.64 134.167 68.32C133.463 68.032 132.855 67.68 132.343 67.264C131.799 66.88 131.415 66.464 131.191 66.016C131.191 65.632 131.415 65.296 131.863 65.008C132.247 65.36 132.567 65.632 132.823 65.824C133.079 66.016 133.335 66.176 133.591 66.304C133.815 66.432 134.071 66.512 134.359 66.544C134.615 66.576 134.919 66.592 135.271 66.592C137.095 66.592 138.871 66.048 140.599 64.96C142.359 63.904 144.007 62.384 145.543 60.4C147.111 58.448 148.535 56.064 149.815 53.248C151.095 50.464 152.183 47.344 153.079 43.888C152.663 44.528 152.151 45.312 151.543 46.24C150.935 47.168 150.263 48.096 149.527 49.024C148.791 49.92 148.023 50.736 147.223 51.472C146.455 52.208 145.703 52.704 144.967 52.96C144.455 52.928 143.911 52.816 143.335 52.624C142.791 52.464 142.263 52.224 141.751 51.904C141.271 51.584 140.839 51.2 140.455 50.752C140.071 50.304 139.815 49.792 139.687 49.216C139.687 48.288 139.719 47.552 139.783 47.008C139.847 46.432 139.959 45.808 140.119 45.136C140.407 43.92 140.823 42.544 141.367 41.008C141.943 39.472 142.599 37.968 143.335 36.496C144.103 34.992 144.935 33.6 145.831 32.32C146.759 31.008 147.719 29.984 148.711 29.248C148.967 29.248 149.287 29.28 149.671 29.344C150.055 29.376 150.455 29.456 150.871 29.584C151.287 29.712 151.687 29.872 152.071 30.064C152.455 30.224 152.791 30.448 153.079 30.736C152.727 31.056 151.959 32.128 150.775 33.952C149.591 35.776 148.279 38.4 146.839 41.824C146.679 42.176 146.487 42.688 146.263 43.36C146.039 44.032 145.815 44.736 145.591 45.472C145.399 46.208 145.223 46.928 145.063 47.632C144.903 48.336 144.823 48.896 144.823 49.312C144.823 49.568 144.855 49.76 144.919 49.888C145.015 50.016 145.095 50.112 145.159 50.176C145.735 50.08 146.503 49.616 147.463 48.784C148.423 47.92 149.511 46.592 150.727 44.8C151.495 43.648 152.199 42.512 152.839 41.392C153.479 40.24 154.103 39.088 154.711 37.936C155.351 36.784 156.007 35.6 156.679 34.384C157.351 33.168 158.071 31.92 158.839 30.64C159.255 30.64 159.703 30.688 160.183 30.784C160.663 30.88 161.127 31.008 161.575 31.168C162.023 31.296 162.407 31.456 162.727 31.648C163.079 31.808 163.335 31.984 163.495 32.176C162.503 34.288 161.575 36.352 160.711 38.368C159.847 40.384 159.079 42.448 158.407 44.56ZM180.404 32.896C180.372 33.504 180.26 34.144 180.068 34.816C179.908 35.456 179.7 36.048 179.444 36.592C179.188 37.104 178.916 37.536 178.628 37.888C178.34 38.24 178.068 38.416 177.812 38.416C177.46 38.384 177.252 38.144 177.188 37.696C177.188 37.6 177.22 37.456 177.284 37.264C177.38 37.04 177.476 36.8 177.572 36.544C177.668 36.288 177.748 36.032 177.812 35.776C177.908 35.52 177.956 35.296 177.956 35.104C177.956 34.656 177.844 34.288 177.62 34C177.428 33.68 177.156 33.52 176.804 33.52C175.524 33.52 174.548 34.32 173.876 35.92C173.204 37.52 172.868 39.872 172.868 42.976C172.868 43.296 172.884 43.488 172.916 43.552C173.588 43.52 174.18 43.504 174.692 43.504C175.236 43.472 175.764 43.456 176.276 43.456C176.308 43.52 176.324 43.648 176.324 43.84C176.324 44.128 176.26 44.336 176.132 44.464C175.396 44.624 174.804 44.768 174.356 44.896C173.94 44.992 173.62 45.088 173.396 45.184C173.172 45.28 173.028 45.392 172.964 45.52C172.932 45.616 172.916 45.76 172.916 45.952C172.916 46.208 172.916 46.464 172.916 46.72C172.948 46.976 172.964 47.296 172.964 47.68C172.964 50.368 172.228 52.528 170.756 54.16C169.316 55.792 167.3 56.736 164.708 56.992C164.26 56.96 163.796 56.832 163.316 56.608C162.836 56.384 162.372 56.096 161.924 55.744C161.508 55.392 161.14 54.992 160.82 54.544C160.5 54.128 160.276 53.696 160.148 53.248C160.148 52.032 160.404 50.88 160.916 49.792C161.428 48.672 162.116 47.696 162.98 46.864C163.876 46 164.916 45.312 166.1 44.8C167.316 44.256 168.628 43.936 170.036 43.84C170.036 43.04 169.956 42.256 169.796 41.488C169.636 40.72 169.46 39.984 169.268 39.28C169.108 38.544 168.948 37.84 168.788 37.168C168.628 36.464 168.548 35.776 168.548 35.104C168.548 34.24 168.724 33.392 169.076 32.56C169.428 31.696 169.892 30.912 170.468 30.208C171.044 29.472 171.716 28.848 172.484 28.336C173.252 27.824 174.052 27.472 174.884 27.28C175.236 27.376 175.7 27.664 176.276 28.144C176.884 28.592 177.476 29.104 178.052 29.68C178.628 30.256 179.14 30.848 179.588 31.456C180.036 32.032 180.308 32.512 180.404 32.896ZM164.564 54.784C165.332 54.464 166.052 54 166.724 53.392C167.428 52.784 168.036 52.096 168.548 51.328C169.06 50.56 169.46 49.744 169.748 48.88C170.068 48.016 170.228 47.168 170.228 46.336C169.588 46.432 168.884 46.736 168.116 47.248C167.348 47.728 166.628 48.32 165.956 49.024C165.284 49.696 164.724 50.4 164.276 51.136C163.828 51.872 163.604 52.512 163.604 53.056C163.604 53.76 163.924 54.336 164.564 54.784ZM183.269 33.616C183.109 33.424 182.965 33.024 182.837 32.416C182.709 31.776 182.645 31.232 182.645 30.784C183.477 30.848 184.277 30.912 185.045 30.976C185.813 31.008 186.517 31.04 187.157 31.072C187.637 30.112 188.149 29.168 188.693 28.24C189.269 27.28 189.813 26.416 190.325 25.648C190.869 24.848 191.365 24.176 191.813 23.632C192.293 23.088 192.661 22.736 192.917 22.576C193.237 22.576 193.637 22.64 194.117 22.768C194.629 22.864 195.141 23.008 195.653 23.2C196.165 23.36 196.629 23.536 197.045 23.728C197.461 23.92 197.749 24.112 197.909 24.304C196.949 25.52 196.117 26.656 195.413 27.712C194.741 28.736 194.005 29.92 193.205 31.264C193.845 31.264 194.485 31.248 195.125 31.216C195.797 31.184 196.469 31.136 197.141 31.072C197.301 31.232 197.429 31.44 197.525 31.696C197.621 31.92 197.669 32.16 197.669 32.416C196.101 32.992 194.197 33.312 191.957 33.376C191.157 34.912 190.437 36.448 189.797 37.984C189.189 39.488 188.661 40.944 188.213 42.352C187.797 43.76 187.461 45.088 187.205 46.336C186.981 47.584 186.869 48.704 186.869 49.696C186.869 51.104 187.397 51.888 188.453 52.048C189.413 51.92 190.325 51.68 191.189 51.328C192.053 50.976 192.821 50.528 193.493 49.984C193.685 50.272 193.797 50.512 193.829 50.704C193.637 50.992 193.301 51.328 192.821 51.712C192.373 52.096 191.877 52.464 191.333 52.816C190.789 53.2 190.261 53.52 189.749 53.776C189.237 54.032 188.853 54.176 188.597 54.208C187.797 54.176 186.997 54 186.197 53.68C185.397 53.36 184.661 52.96 183.989 52.48C183.349 52 182.821 51.472 182.405 50.896C181.989 50.288 181.781 49.696 181.781 49.12C181.781 48.352 181.877 47.392 182.069 46.24C182.293 45.056 182.597 43.776 182.981 42.4C183.365 41.024 183.813 39.584 184.325 38.08C184.837 36.576 185.397 35.088 186.005 33.616H183.269ZM214.496 32.128C214.368 34.112 214.016 35.824 213.44 37.264C212.864 38.672 212.032 39.92 210.944 41.008C209.888 42.064 208.592 43.024 207.056 43.888C205.52 44.752 203.728 45.584 201.68 46.384C201.68 46.576 201.664 46.784 201.632 47.008C201.632 47.2 201.632 47.408 201.632 47.632C201.632 48.048 201.664 48.48 201.728 48.928C201.792 49.376 201.904 49.792 202.064 50.176C202.224 50.56 202.448 50.88 202.736 51.136C203.024 51.36 203.392 51.472 203.84 51.472C204.704 51.472 205.552 51.28 206.384 50.896C207.216 50.512 208 50.048 208.736 49.504C209.504 48.928 210.208 48.32 210.848 47.68C211.52 47.008 212.112 46.4 212.624 45.856C212.944 46.144 213.216 46.416 213.44 46.672C212 48.592 210.416 50.192 208.688 51.472C206.992 52.72 205.376 53.52 203.84 53.872C201.632 53.616 199.904 52.816 198.656 51.472C197.44 50.096 196.832 48.448 196.832 46.528C196.832 45.216 197.008 43.888 197.36 42.544C197.744 41.168 198.256 39.856 198.896 38.608C199.568 37.328 200.336 36.128 201.2 35.008C202.096 33.888 203.04 32.912 204.032 32.08C205.056 31.248 206.096 30.592 207.152 30.112C208.24 29.632 209.312 29.392 210.368 29.392C211.84 29.584 213.216 30.496 214.496 32.128ZM211.184 33.712C210.32 33.84 209.424 34.192 208.496 34.768C207.568 35.344 206.688 36.112 205.856 37.072C205.056 38.032 204.32 39.152 203.648 40.432C202.976 41.712 202.448 43.088 202.064 44.56C204.624 43.28 206.752 41.712 208.448 39.856C210.144 37.968 211.056 35.92 211.184 33.712ZM244.463 37.264C243.951 37.296 243.327 37.632 242.591 38.272C241.855 38.88 241.055 39.68 240.191 40.672C239.359 41.632 238.479 42.704 237.551 43.888C236.655 45.072 235.775 46.256 234.911 47.44C234.079 48.592 233.295 49.68 232.559 50.704C231.823 51.728 231.199 52.544 230.687 53.152C229.983 52.864 229.375 52.448 228.863 51.904C228.351 51.328 227.983 50.624 227.759 49.792C227.919 48.8 228.143 47.776 228.431 46.72C228.719 45.632 229.087 44.512 229.535 43.36C230.015 42.208 230.591 41.008 231.263 39.76C231.967 38.48 232.815 37.136 233.807 35.728C233.327 35.76 232.671 36.112 231.839 36.784C231.007 37.424 230.111 38.272 229.151 39.328C228.191 40.352 227.199 41.52 226.174 42.832C225.151 44.112 224.191 45.376 223.295 46.624C222.111 48.288 221.119 49.744 220.319 50.992C219.551 52.24 218.991 52.976 218.639 53.2C217.807 52.592 217.231 51.936 216.911 51.232C216.591 50.528 216.351 49.744 216.191 48.88C216.223 48.112 216.335 47.152 216.527 46C216.751 44.848 217.055 43.664 217.439 42.448C218.175 40.112 219.119 37.792 220.271 35.488C221.455 33.184 222.591 31.072 223.679 29.152C224.575 29.344 225.375 29.648 226.079 30.064C226.815 30.48 227.583 31.088 228.383 31.888C228.063 32.88 227.567 33.936 226.895 35.056C226.223 36.144 225.519 37.296 224.783 38.512C224.047 39.728 223.375 40.976 222.767 42.256C222.159 43.536 221.759 44.832 221.567 46.144C222.463 44.864 223.519 43.392 224.734 41.728C225.983 40.064 227.247 38.496 228.527 37.024C229.839 35.552 231.135 34.304 232.415 33.28C233.695 32.256 234.847 31.744 235.871 31.744C236.255 31.744 236.671 31.808 237.119 31.936C237.567 32.064 237.983 32.224 238.367 32.416C238.751 32.608 239.071 32.8 239.327 32.992C239.583 33.152 239.727 33.28 239.759 33.376C239.599 34.016 239.215 34.896 238.607 36.016C238.031 37.104 237.407 38.256 236.734 39.472C236.063 40.688 235.439 41.872 234.863 43.024C234.287 44.144 233.951 45.04 233.855 45.712C235.423 43.568 236.895 41.632 238.271 39.904C239.647 38.144 240.943 36.64 242.159 35.392C243.375 34.144 244.495 33.184 245.519 32.512C246.575 31.84 247.567 31.504 248.495 31.504C249.135 31.504 249.727 31.68 250.271 32.032C250.847 32.352 251.247 32.832 251.471 33.472C251.183 34.432 250.703 35.584 250.031 36.928C249.391 38.272 248.735 39.696 248.063 41.2C247.391 42.672 246.783 44.128 246.239 45.568C245.727 47.008 245.471 48.304 245.471 49.456C245.471 50.128 245.567 50.576 245.759 50.8C245.951 50.992 246.223 51.088 246.575 51.088C246.959 51.088 247.311 51.024 247.631 50.896C247.983 50.736 248.239 50.656 248.399 50.656C248.591 50.784 248.703 50.944 248.735 51.136C248.767 51.328 248.783 51.504 248.783 51.664C248.143 52.176 247.487 52.592 246.815 52.912C246.143 53.264 245.391 53.44 244.559 53.44C243.791 53.44 243.151 53.312 242.639 53.056C242.159 52.8 241.759 52.448 241.439 52C241.119 51.552 240.895 51.04 240.767 50.464C240.639 49.888 240.575 49.264 240.575 48.592C240.575 47.504 240.719 46.432 241.007 45.376C241.295 44.288 241.631 43.264 242.015 42.304C242.431 41.312 242.863 40.4 243.311 39.568C243.759 38.704 244.143 37.936 244.463 37.264Z" fill="#149FED"/>
</svg>
