<svg width="360" height="360" viewBox="0 0 360 360" fill="none" xmlns="http://www.w3.org/2000/svg">
<path d="M180 345C271.127 345 345 271.127 345 180C345 88.873 271.127 15 180 15C88.873 15 15 88.873 15 180C15 271.127 88.873 345 180 345Z" fill="#545454"/>
<g clip-path="url(#clip0_1_3)">
<path d="M180.742 126.753L176.693 123.936C196.939 100.873 172.643 84.1476 161.2 101.401C150.461 117.598 165.073 137.668 173.876 163.724C187.784 204.921 185.671 227.103 167.714 248.582C122.468 302.455 37.7859 281.856 67.0109 226.047C77.0461 206.857 94.4754 193.125 124.228 196.47C127.045 199.991 124.053 201.4 121.94 202.456C97.8203 214.428 83.9125 262.49 104.862 261.434C114.898 261.082 129.862 251.047 137.609 233.969C146.587 214.075 135.496 189.076 127.573 165.484C109.088 109.851 150.989 61.789 198.876 86.7882C217.009 96.2952 205.038 129.569 180.742 126.753H180.742Z" fill="white"/>
</g>
<g clip-path="url(#clip1_1_3)">
<path d="M319.938 178C319.313 191.625 309.813 210.281 291.375 233.969C272.344 258.719 256.25 271.094 243.063 271.094C234.906 271.094 228 263.563 222.344 248.5C211.344 208.125 206.656 184.469 197.563 184.469C196.5 184.469 192.844 186.688 186.563 191.063L180 182.562C196.125 168.406 211.531 152.656 221.188 151.781C232.094 150.719 238.781 158.187 241.313 174.125C250.281 230.844 254.25 239.406 270.563 213.719C276.406 204.469 279.563 197.438 280 192.594C281.5 178.25 268.813 179.219 260.219 182.906C267.094 160.375 280.25 149.437 299.656 150.062C313.969 150.438 320.75 159.781 319.938 178V178Z" fill="white"/>
</g>
<defs>
<clipPath id="clip0_1_3">
<rect width="146.9" height="200" fill="white" transform="translate(61 80)"/>
</clipPath>
<clipPath id="clip1_1_3">
<rect width="140" height="160" fill="white" transform="translate(180 130)"/>
</clipPath>
</defs>
</svg>
